<?xml version="1.0" encoding="utf-8"?>
<!-- Generator: Adobe Illustrator 27.1.1, SVG Export Plug-In . SVG Version: 6.00 Build 0)  -->
<svg version="1.1" id="Livello_1" xmlns="http://www.w3.org/2000/svg" xmlns:xlink="http://www.w3.org/1999/xlink" x="0px" y="0px"
	 viewBox="0 0 743.9 617.4" style="enable-background:new 0 0 743.9 617.4;" xml:space="preserve">
<style type="text/css">
	.st0{fill:#212121;stroke:#000000;stroke-width:0.5;stroke-miterlimit:10;}
	.st1{fill:#0D1017;}
	.st2{fill:#FFFFFF;}
</style>
<rect x="44.5" y="44.5" class="st0" width="653.8" height="528.6"/>
<path class="st1" d="M743.8,503l0-56.5l0-174.7l0-126.1l0-41.6c0-7.6,0.2-15.4-0.2-22.9c-2-36.5-28.3-67.5-63.2-77.5
	c-14.9-4.2-27-3.8-42.2-3.7c-9,0.1-18.1,0-27.1,0l-71.9,0l-248.5,0l-138.7,0l-43.5,0c-24,0-41.4-1.3-63.6,10.7
	C25.1,21.7,10.3,40,3.8,61.8c-5,16.7-3.6,39.9-3.6,57.9l0,54.7l0,170.5l0,128.1l0,41.9c0,7.5-0.3,17,0.3,24.4
	c0.9,11.6,4.2,22.9,9.7,33.2c10.8,19.8,29,34.6,50.6,41.1c6.1,1.8,11.9,2.8,18.2,3.4c18.7,0.4,38.3,0.1,57.1,0.1h101.3l75.5,0
	c11.8,0,26.5,0.4,37.9-0.1c8.9,0.1,20.9,0.4,29.5,0c16.1,0.4,32.9,0.3,49.1,0.1c35.5-0.4,71.3,0.7,106.8-0.1
	c13.1,0.2,31.3,0.5,44.4,0c14.2,0.7,30.1,0.1,44.5,0.1c25.3,0,49.7,2.8,72.9-9.5c20.3-10.4,35.5-28.6,42.2-50.3
	C745,540.8,743.8,520.4,743.8,503z M696.2,544.2c-2.7,6.7-4.6,11.2-9.9,16.5c-8.8,8.8-19,12.4-31.3,12.4c-42.1,0-84.3,0-126.4,0
	l-257.1,0l-127.6,0l-39.1,0c-7.8,0-16.3,0.3-23.8-0.5c-15.3-1.5-29.8-12.1-34-27.3c-3.5-12.5-2.2-29-2.2-42.2l0-70.1l0-238.9
	c16,0.8,36.9,0.2,53.2,0.2l95.2,0l293.3,0l150.7,0l39.7,0.1c4.7,0,16.8,0.3,21-0.5l0.1,246.4l0,61.4
	C698,513.1,698.8,534,696.2,544.2z M698.2,146.9c0,0.6-0.6,1.4-1,1.9c-1.3,0.3-1.6,0.3-2.9,0.3c-7.2-0.8-29.1-0.1-37.2-0.1l-78.4,0
	l-257,0l-196.4,0l-53,0c-5.4,0-21.6-0.3-26,0.4c-1.1-0.3-0.7-0.1-1.5-0.9c-0.3-18.1,0.2-36.3-0.1-54.5c-0.1-5.5-0.2-11.8,0.9-17.2
	c1.3-6.5,4.1-12.7,8.3-17.8C62.3,48.8,72.5,45.8,85,44.6c17,0.4,34.8,0.1,51.9,0.1l91.9,0l282.7,0l93.5,0c18.7,0,39-0.4,57.6,0.4
	c12.6,2.9,22,7.7,29.1,19c2.9,4.6,4.9,9.8,5.7,15.1C699.6,93,696.8,131,698.2,146.9z"/>
<path class="st2" d="M139.5,251.2c14.8-1.1,18.5,4.5,28,13.9l19,18.4l35.1,34.4c10.7,10.4,21.6,20.8,32,31.5c5.2,5.3,8,9.6,7.6,17.4
	c-0.2,5-0.9,7.2-4,11.2c-4.5,5.7-10.3,11.2-15.4,16.4L216,421l-37.2,37.7c-6.8,6.9-15.2,15.7-22.4,22c-21.3,13.5-42.8-8.2-32.5-27.7
	c3-5.6,19.3-21.9,24.7-27.6l57-60.9c-5.4-5.9-12.9-13.1-18.6-18.8l-38.9-38.8c-6.4-6.4-23.6-21.8-25.8-29.2
	c-1.5-5.2-0.8-10.8,1.9-15.6C127.9,255.6,132.8,253.1,139.5,251.2z"/>
<path class="st2" d="M295.5,458.2c3.6-0.2,7.4-0.1,11-0.1c31.5,0.1,63.1-0.2,94.6,0.1c9.2,0.1,17.2,5.9,19.9,14.8
	c1.6,5.5,0.9,11.5-1.9,16.5c-3.4,5.7-8.1,7.9-14.1,9.5c-23.2,1.1-47.7-0.3-71,0.2c-8.8,0.2-37.9,0.9-44-2.2
	c-4.8-2.5-8.4-6.7-10.1-11.8C275.7,472.4,283.3,461.9,295.5,458.2z"/>
<path class="st2" d="M498.2,72.2c14-1.1,26.3,9.4,27.3,23.4c1.1,14-9.5,26.2-23.5,27.2c-13.9,1-26-9.5-27.1-23.4
	C473.9,85.4,484.3,73.3,498.2,72.2z"/>
<path class="st2" d="M641.9,72.2c13.8-1.3,26.2,8.8,27.6,22.6c1.4,13.8-8.6,26.2-22.4,27.7c-14,1.5-26.5-8.6-27.9-22.6
	C617.7,86,627.9,73.6,641.9,72.2z"/>
<path class="st2" d="M571.4,72.3c13.9-1.1,26,9.3,27.1,23.1c1.1,13.9-9.1,26-23,27.2c-14,1.2-26.2-9.2-27.4-23.1
	C547,85.6,557.5,73.3,571.4,72.3z"/>
</svg>
