<svg xmlns="http://www.w3.org/2000/svg" width="821" height="177" viewBox="0 0 821 177" role="img" aria-label="terminale">
  <defs>
    <linearGradient id="bg" x1="0" y1="0" x2="0" y2="1">
      <stop offset="0" stop-color="#1a1b26"/>
      <stop offset="1" stop-color="#0d1017"/>
    </linearGradient>
    <linearGradient id="rb" gradientUnits="userSpaceOnUse" x1="0" y1="0" x2="360" y2="0" spreadMethod="repeat">
      <stop offset="0" stop-color="#ff5555"/><stop offset="0.13" stop-color="#ffb86c"/><stop offset="0.27" stop-color="#f1fa8c"/><stop offset="0.41" stop-color="#50fa7b"/><stop offset="0.55" stop-color="#8be9fd"/><stop offset="0.69" stop-color="#7aa2f7"/><stop offset="0.83" stop-color="#bd93f9"/><stop offset="0.92" stop-color="#ff79c6"/><stop offset="1" stop-color="#ff5555"/>
      <animateTransform attributeName="gradientTransform" type="translate" from="0 0" to="360 0" dur="4s" repeatCount="indefinite"/>
    </linearGradient>
  </defs>
  <rect x="0.5" y="0.5" width="820" height="176" rx="16" fill="url(#bg)" stroke="#2a2c3d" stroke-width="1"/>
  <g fill="url(#rb)"><rect x="40" y="40" width="13" height="13" rx="1.5"/><rect x="54" y="40" width="13" height="13" rx="1.5"/><rect x="68" y="40" width="13" height="13" rx="1.5"/><rect x="82" y="40" width="13" height="13" rx="1.5"/><rect x="96" y="40" width="13" height="13" rx="1.5"/><rect x="68" y="54" width="13" height="13" rx="1.5"/><rect x="68" y="68" width="13" height="13" rx="1.5"/><rect x="68" y="82" width="13" height="13" rx="1.5"/><rect x="68" y="96" width="13" height="13" rx="1.5"/><rect x="68" y="110" width="13" height="13" rx="1.5"/><rect x="68" y="124" width="13" height="13" rx="1.5"/><rect x="124" y="40" width="13" height="13" rx="1.5"/><rect x="138" y="40" width="13" height="13" rx="1.5"/><rect x="152" y="40" width="13" height="13" rx="1.5"/><rect x="166" y="40" width="13" height="13" rx="1.5"/><rect x="180" y="40" width="13" height="13" rx="1.5"/><rect x="124" y="54" width="13" height="13" rx="1.5"/><rect x="124" y="68" width="13" height="13" rx="1.5"/><rect x="124" y="82" width="13" height="13" rx="1.5"/><rect x="138" y="82" width="13" height="13" rx="1.5"/><rect x="152" y="82" width="13" height="13" rx="1.5"/><rect x="166" y="82" width="13" height="13" rx="1.5"/><rect x="124" y="96" width="13" height="13" rx="1.5"/><rect x="124" y="110" width="13" height="13" rx="1.5"/><rect x="124" y="124" width="13" height="13" rx="1.5"/><rect x="138" y="124" width="13" height="13" rx="1.5"/><rect x="152" y="124" width="13" height="13" rx="1.5"/><rect x="166" y="124" width="13" height="13" rx="1.5"/><rect x="180" y="124" width="13" height="13" rx="1.5"/><rect x="208" y="40" width="13" height="13" rx="1.5"/><rect x="222" y="40" width="13" height="13" rx="1.5"/><rect x="236" y="40" width="13" height="13" rx="1.5"/><rect x="250" y="40" width="13" height="13" rx="1.5"/><rect x="208" y="54" width="13" height="13" rx="1.5"/><rect x="264" y="54" width="13" height="13" rx="1.5"/><rect x="208" y="68" width="13" height="13" rx="1.5"/><rect x="264" y="68" width="13" height="13" rx="1.5"/><rect x="208" y="82" width="13" height="13" rx="1.5"/><rect x="222" y="82" width="13" height="13" rx="1.5"/><rect x="236" y="82" width="13" height="13" rx="1.5"/><rect x="250" y="82" width="13" height="13" rx="1.5"/><rect x="208" y="96" width="13" height="13" rx="1.5"/><rect x="236" y="96" width="13" height="13" rx="1.5"/><rect x="208" y="110" width="13" height="13" rx="1.5"/><rect x="250" y="110" width="13" height="13" rx="1.5"/><rect x="208" y="124" width="13" height="13" rx="1.5"/><rect x="264" y="124" width="13" height="13" rx="1.5"/><rect x="292" y="40" width="13" height="13" rx="1.5"/><rect x="348" y="40" width="13" height="13" rx="1.5"/><rect x="292" y="54" width="13" height="13" rx="1.5"/><rect x="306" y="54" width="13" height="13" rx="1.5"/><rect x="334" y="54" width="13" height="13" rx="1.5"/><rect x="348" y="54" width="13" height="13" rx="1.5"/><rect x="292" y="68" width="13" height="13" rx="1.5"/><rect x="320" y="68" width="13" height="13" rx="1.5"/><rect x="348" y="68" width="13" height="13" rx="1.5"/><rect x="292" y="82" width="13" height="13" rx="1.5"/><rect x="320" y="82" width="13" height="13" rx="1.5"/><rect x="348" y="82" width="13" height="13" rx="1.5"/><rect x="292" y="96" width="13" height="13" rx="1.5"/><rect x="348" y="96" width="13" height="13" rx="1.5"/><rect x="292" y="110" width="13" height="13" rx="1.5"/><rect x="348" y="110" width="13" height="13" rx="1.5"/><rect x="292" y="124" width="13" height="13" rx="1.5"/><rect x="348" y="124" width="13" height="13" rx="1.5"/><rect x="376" y="40" width="13" height="13" rx="1.5"/><rect x="390" y="40" width="13" height="13" rx="1.5"/><rect x="404" y="40" width="13" height="13" rx="1.5"/><rect x="418" y="40" width="13" height="13" rx="1.5"/><rect x="432" y="40" width="13" height="13" rx="1.5"/><rect x="404" y="54" width="13" height="13" rx="1.5"/><rect x="404" y="68" width="13" height="13" rx="1.5"/><rect x="404" y="82" width="13" height="13" rx="1.5"/><rect x="404" y="96" width="13" height="13" rx="1.5"/><rect x="404" y="110" width="13" height="13" rx="1.5"/><rect x="376" y="124" width="13" height="13" rx="1.5"/><rect x="390" y="124" width="13" height="13" rx="1.5"/><rect x="404" y="124" width="13" height="13" rx="1.5"/><rect x="418" y="124" width="13" height="13" rx="1.5"/><rect x="432" y="124" width="13" height="13" rx="1.5"/><rect x="460" y="40" width="13" height="13" rx="1.5"/><rect x="516" y="40" width="13" height="13" rx="1.5"/><rect x="460" y="54" width="13" height="13" rx="1.5"/><rect x="474" y="54" width="13" height="13" rx="1.5"/><rect x="516" y="54" width="13" height="13" rx="1.5"/><rect x="460" y="68" width="13" height="13" rx="1.5"/><rect x="488" y="68" width="13" height="13" rx="1.5"/><rect x="516" y="68" width="13" height="13" rx="1.5"/><rect x="460" y="82" width="13" height="13" rx="1.5"/><rect x="488" y="82" width="13" height="13" rx="1.5"/><rect x="516" y="82" width="13" height="13" rx="1.5"/><rect x="460" y="96" width="13" height="13" rx="1.5"/><rect x="502" y="96" width="13" height="13" rx="1.5"/><rect x="516" y="96" width="13" height="13" rx="1.5"/><rect x="460" y="110" width="13" height="13" rx="1.5"/><rect x="516" y="110" width="13" height="13" rx="1.5"/><rect x="460" y="124" width="13" height="13" rx="1.5"/><rect x="516" y="124" width="13" height="13" rx="1.5"/><rect x="558" y="40" width="13" height="13" rx="1.5"/><rect x="572" y="40" width="13" height="13" rx="1.5"/><rect x="586" y="40" width="13" height="13" rx="1.5"/><rect x="544" y="54" width="13" height="13" rx="1.5"/><rect x="600" y="54" width="13" height="13" rx="1.5"/><rect x="544" y="68" width="13" height="13" rx="1.5"/><rect x="600" y="68" width="13" height="13" rx="1.5"/><rect x="544" y="82" width="13" height="13" rx="1.5"/><rect x="558" y="82" width="13" height="13" rx="1.5"/><rect x="572" y="82" width="13" height="13" rx="1.5"/><rect x="586" y="82" width="13" height="13" rx="1.5"/><rect x="600" y="82" width="13" height="13" rx="1.5"/><rect x="544" y="96" width="13" height="13" rx="1.5"/><rect x="600" y="96" width="13" height="13" rx="1.5"/><rect x="544" y="110" width="13" height="13" rx="1.5"/><rect x="600" y="110" width="13" height="13" rx="1.5"/><rect x="544" y="124" width="13" height="13" rx="1.5"/><rect x="600" y="124" width="13" height="13" rx="1.5"/><rect x="628" y="40" width="13" height="13" rx="1.5"/><rect x="628" y="54" width="13" height="13" rx="1.5"/><rect x="628" y="68" width="13" height="13" rx="1.5"/><rect x="628" y="82" width="13" height="13" rx="1.5"/><rect x="628" y="96" width="13" height="13" rx="1.5"/><rect x="628" y="110" width="13" height="13" rx="1.5"/><rect x="628" y="124" width="13" height="13" rx="1.5"/><rect x="642" y="124" width="13" height="13" rx="1.5"/><rect x="656" y="124" width="13" height="13" rx="1.5"/><rect x="670" y="124" width="13" height="13" rx="1.5"/><rect x="684" y="124" width="13" height="13" rx="1.5"/><rect x="712" y="40" width="13" height="13" rx="1.5"/><rect x="726" y="40" width="13" height="13" rx="1.5"/><rect x="740" y="40" width="13" height="13" rx="1.5"/><rect x="754" y="40" width="13" height="13" rx="1.5"/><rect x="768" y="40" width="13" height="13" rx="1.5"/><rect x="712" y="54" width="13" height="13" rx="1.5"/><rect x="712" y="68" width="13" height="13" rx="1.5"/><rect x="712" y="82" width="13" height="13" rx="1.5"/><rect x="726" y="82" width="13" height="13" rx="1.5"/><rect x="740" y="82" width="13" height="13" rx="1.5"/><rect x="754" y="82" width="13" height="13" rx="1.5"/><rect x="712" y="96" width="13" height="13" rx="1.5"/><rect x="712" y="110" width="13" height="13" rx="1.5"/><rect x="712" y="124" width="13" height="13" rx="1.5"/><rect x="726" y="124" width="13" height="13" rx="1.5"/><rect x="740" y="124" width="13" height="13" rx="1.5"/><rect x="754" y="124" width="13" height="13" rx="1.5"/><rect x="768" y="124" width="13" height="13" rx="1.5"/></g>
</svg>
